<svg width="73" height="22" viewBox="0 0 73 22" fill="none" xmlns="http://www.w3.org/2000/svg">
<path d="M3.06452 22H0V5.70901H2.97235V7.14224C3.24885 6.66449 3.69432 6.26638 4.30876 5.94788C4.9232 5.61346 5.63749 5.44625 6.45162 5.44625C8.06453 5.44625 9.33949 6.01954 10.2765 7.16612C11.2135 8.29678 11.682 9.76185 11.682 11.5613C11.682 13.3608 11.1828 14.8418 10.1843 16.0043C9.20124 17.1668 7.9186 17.7481 6.33642 17.7481C4.83104 17.7481 3.7404 17.2704 3.06452 16.3149V22ZM7.85715 14.0217C8.39479 13.4166 8.66361 12.6044 8.66361 11.5852C8.66361 10.5661 8.39479 9.76185 7.85715 9.17264C7.33488 8.58342 6.66668 8.28882 5.85254 8.28882C5.03841 8.28882 4.36253 8.59139 3.82489 9.19652C3.28726 9.78574 3.01844 10.582 3.01844 11.5852C3.01844 12.5885 3.28726 13.3927 3.82489 13.9978C4.36253 14.603 5.03841 14.9055 5.85254 14.9055C6.66668 14.9055 7.33488 14.6109 7.85715 14.0217Z" fill="white"/>
<path d="M15.7905 22H12.7259V5.70901H15.6983V7.14224C15.9748 6.66449 16.4203 6.26638 17.0347 5.94788C17.6491 5.61346 18.3634 5.44625 19.1776 5.44625C20.7905 5.44625 22.0654 6.01954 23.0024 7.16612C23.9395 8.29678 24.408 9.76185 24.408 11.5613C24.408 13.3608 23.9087 14.8418 22.9103 16.0043C21.9272 17.1668 20.6445 17.7481 19.0623 17.7481C17.557 17.7481 16.4663 17.2704 15.7905 16.3149V22ZM20.5831 14.0217C21.1207 13.4166 21.3895 12.6044 21.3895 11.5852C21.3895 10.5661 21.1207 9.76185 20.5831 9.17264C20.0608 8.58342 19.3926 8.28882 18.5785 8.28882C17.7643 8.28882 17.0885 8.59139 16.5508 9.19652C16.0132 9.78574 15.7444 10.582 15.7444 11.5852C15.7444 12.5885 16.0132 13.3927 16.5508 13.9978C17.0885 14.603 17.7643 14.9055 18.5785 14.9055C19.3926 14.9055 20.0608 14.6109 20.5831 14.0217Z" fill="white"/>
<path d="M28.5164 17.4615H25.4519V0.167209H28.5164V17.4615Z" fill="white"/>
<path d="M32.6498 10.2476H37.7189C37.6882 9.59464 37.4578 9.04524 37.0277 8.59935C36.613 8.15346 35.9985 7.93051 35.1844 7.93051C34.4471 7.93051 33.848 8.16938 33.3871 8.64712C32.9263 9.12486 32.6805 9.65834 32.6498 10.2476ZM38.0185 13.3051L40.5761 14.0934C40.2689 15.1763 39.6621 16.068 38.7558 16.7687C37.8649 17.4694 36.7512 17.8198 35.4148 17.8198C33.7865 17.8198 32.404 17.2544 31.2673 16.1238C30.1306 14.9772 29.5623 13.4484 29.5623 11.5375C29.5623 9.72204 30.1153 8.24104 31.2212 7.09446C32.3272 5.93196 33.6329 5.35071 35.1383 5.35071C36.8895 5.35071 38.2566 5.89215 39.2397 6.97503C40.2382 8.05791 40.7374 9.54687 40.7374 11.4419C40.7374 11.5693 40.7297 11.7126 40.7143 11.8719C40.7143 12.0311 40.7143 12.1585 40.7143 12.2541L40.6913 12.4213H32.5807C32.6114 13.1857 32.9033 13.8227 33.4563 14.3322C34.0093 14.8418 34.6698 15.0966 35.4378 15.0966C36.7435 15.0966 37.6037 14.4995 38.0185 13.3051Z" fill="white"/>
<path d="M42.229 17.0076C41.8142 16.5776 41.6068 16.0601 41.6068 15.4549C41.6068 14.8498 41.8142 14.3402 42.229 13.9262C42.6437 13.4962 43.1353 13.2812 43.7036 13.2812C44.2873 13.2812 44.7866 13.4962 45.2013 13.9262C45.6161 14.3402 45.8234 14.8498 45.8234 15.4549C45.8234 16.0601 45.6161 16.5776 45.2013 17.0076C44.7866 17.4216 44.2873 17.6287 43.7036 17.6287C43.1353 17.6287 42.6437 17.4216 42.229 17.0076Z" fill="white"/>
<path d="M50.6056 10.7014V17.4615H47.5411V5.70901H50.5135V7.16612C50.836 6.59283 51.2969 6.1549 51.896 5.85233C52.495 5.54977 53.1248 5.39848 53.7854 5.39848C55.1218 5.39848 56.1356 5.83641 56.8268 6.71227C57.5334 7.5722 57.8867 8.68693 57.8867 10.0565V17.4615H54.8222V10.6059C54.8222 9.90517 54.6456 9.33985 54.2923 8.90988C53.9543 8.47991 53.4321 8.26493 52.7254 8.26493C52.0803 8.26493 51.5657 8.49584 51.1817 8.95765C50.7976 9.41947 50.6056 10.0007 50.6056 10.7014Z" fill="white"/>
<path d="M64.868 2.79479C64.4379 2.79479 64.0615 2.92219 63.7389 3.17698C63.4317 3.41585 63.2781 3.82989 63.2781 4.41911V5.70901H65.8357V8.43214H63.2781V17.4615H60.1905V8.43214H58.3011V5.70901H60.1905V4.37134C60.1905 3.04958 60.5592 1.99059 61.2965 1.19435C62.0492 0.398118 63.0554 0 64.315 0C64.9909 0 65.4978 0.0796235 65.8357 0.238871V2.91422C65.5746 2.8346 65.252 2.79479 64.868 2.79479Z" fill="white"/>
<path d="M70.7189 2.19761V5.70901H73V8.52769H70.7189V13.4484C70.7189 13.9421 70.8264 14.2924 71.0415 14.4995C71.2565 14.7065 71.5945 14.81 72.0553 14.81C72.47 14.81 72.7849 14.7781 73 14.7144V17.342C72.5545 17.5331 71.9785 17.6287 71.2719 17.6287C70.1659 17.6287 69.2903 17.3102 68.6451 16.6732C68 16.0203 67.6774 15.1285 67.6774 13.9978V8.52769H65.6267V5.70901H66.2028C66.7711 5.70901 67.2012 5.5418 67.4931 5.20738C67.8003 4.85704 67.9539 4.40318 67.9539 3.84582V2.19761H70.7189Z" fill="white"/>
</svg>
